PathFileType	4	(X/Y/Z)	Patient4_TMGait_0pt3_02_left_20.trc.trc
DataRate	CameraRate	NumFrames	NumMarkers	Units	OrigDataRate	OrigDataStartFrame	OrigNumFrames
50.000000000000	50.000000000000	6	33	mm	50.000000000000	89	       141
Frame#	Time	Sacral			L.Shoulder			Chest			R.Shoulder			Neck			R.ASIS			L.ASIS			R.Thigh.Superior			R.Thigh.Lateral			R.Thigh.Inferior			R.Patella			L.Thigh.Superior			L.Thigh.Lateral			L.Thigh.Inferior			L.Patella			L.Shank.Superior			L.Shank.Lateral			L.Shank.Inferior			R.Shank.Superior			R.Shank.Lateral			R.Shank.Inferior			R.Heel			R.Midfoot.Superior			R.Midfoot.Lateral			R.Toe			L.Heel			L.Midfoot.Lateral			L.Midfoot.Superior			L.Toe			L.Elbow			L.Wrist			R.Elbow			R.Wrist			
		X1	Y1	Z1	X2	Y2	Z2	X3	Y3	Z3	X4	Y4	Z4	X5	Y5	Z5	X6	Y6	Z6	X7	Y7	Z7	X8	Y8	Z8	X9	Y9	Z9	X10	Y10	Z10	X11	Y11	Z11	X12	Y12	Z12	X13	Y13	Z13	X14	Y14	Z14	X15	Y15	Z15	X16	Y16	Z16	X17	Y17	Z17	X18	Y18	Z18	X19	Y19	Z19	X20	Y20	Z20	X21	Y21	Z21	X22	Y22	Z22	X23	Y23	Z23	X24	Y24	Z24	X25	Y25	Z25	X26	Y26	Z26	X27	Y27	Z27	X28	Y28	Z28	X29	Y29	Z29	X30	Y30	Z30	X31	Y31	Z31	X32	Y32	Z32	X33	Y33	Z33	

89	40.840000000000	773.023238284681	1006.169792519422	478.397734891083	982.266814736262	1435.534083299468	328.755108458793	1059.111775290000	1360.501192154101	500.472894061368	955.725325517846	1434.458006399940	662.952449963852	944.193570690080	1493.512325354336	485.142557842278	992.489468081678	937.810795547148	615.103299304118	999.697237853602	958.685912002108	341.072942134667	1049.682439194217	746.751575264507	575.858157882794	979.696300291840	629.714496794388	633.226131153688	1060.534429259110	585.724984022720	550.398299770648	1069.966698657616	496.692010768817	555.618565724902	1000.202884819522	726.672811521637	359.799462821052	886.532787541147	630.195008060827	293.310080774147	951.897704798261	534.487526184097	351.388588633404	934.958882276952	459.668924952251	353.122655778887	879.505137638123	402.738170838864	344.968741121900	751.474994069978	330.620094550801	296.515979872100	764.689072590857	202.307473322230	355.019876420015	1042.056091258283	406.574980080657	562.312639082114	974.722202549035	301.688298017770	626.451248351464	1014.463097185990	207.451191021274	561.398580052782	879.339645893006	43.269479691430	538.104951114881	1052.442913425890	97.211459619696	566.476009447048	965.594452531271	37.318064221244	608.556543061215	1173.146792826444	44.265294112289	589.782792709955	594.588695810058	86.055118027009	395.612738252685	663.531344977777	61.327455231198	315.890471184256	759.472668977155	104.253903920990	336.927088496129	869.534304152666	35.981624450204	309.899306932586	1075.867782019948	1114.447520588058	181.579576113627	1331.821736524681	1078.661386207385	200.132417089972	804.528585388740	1122.744065524060	758.306601896644	766.117742385008	865.117755309878	778.158537425046	
90	40.860000000000	774.100696409023	1006.921208145869	484.636087767801	982.257315450928	1435.941349228938	332.344627590294	1060.748087060332	1361.097866837189	503.426970381101	958.850239652148	1435.298583237573	666.666652579420	945.673064952698	1494.192236720882	488.822542078470	994.592714899022	938.316308962566	619.501372235952	999.409470381540	959.129061656201	345.583770399511	1049.716535949048	746.017106133296	579.960287323990	978.322963712594	629.473956606036	636.713839578901	1058.536344795399	585.014581728435	553.627547836479	1066.948350340719	495.943994546586	558.238866046536	1003.307952735173	727.909289754004	363.589358276745	891.674323802986	630.013564496110	296.808608942810	959.272434138550	534.669074463666	354.114371998550	942.826506161507	458.604475526622	354.621499838561	885.116776149905	402.586373741569	346.620605155536	754.855380609746	334.547500472746	298.284289142086	765.022879223999	205.370892735975	355.289227972542	1038.484053065560	406.109400767832	564.373260859898	970.595085074653	301.282438992752	627.887429488665	1009.560805890500	207.196424103200	562.210390844634	873.623945905569	43.380565973501	538.191245207832	1046.763297583576	97.181029415773	566.694143733302	959.870362792106	37.353645703750	608.615311983531	1167.461972866198	43.801384192417	589.982091524687	591.746193638413	95.003214323948	395.403288266042	659.519602694386	67.139493147566	315.794377031491	756.991131804285	106.303500161209	336.495340304701	863.580366842237	35.318018674705	310.061656024485	1071.675795261358	1112.948185764733	185.747349524403	1327.015163556934	1070.366774533305	202.881730262031	810.769099331944	1122.152107104527	764.363586534978	774.091278900591	864.439349917621	785.495681640955	
91	40.880000000000	774.854128449875	1007.478238951306	490.829787005938	981.910831974002	1436.089730923850	335.715871478179	1062.108826046028	1361.453230891561	506.124067367419	961.788797625318	1435.892148507014	670.160549398492	946.941289926866	1494.658764765596	492.278158235265	996.443404775318	938.608137376219	623.764050731530	998.734454578081	959.373309307535	349.989449359936	1049.649396370718	745.249013710574	583.841565727058	976.980526785581	629.128162013377	640.056923810380	1056.589864767820	584.267961686686	556.713392614753	1064.018080169123	495.132734979935	560.761801290917	1006.624419612484	729.180497280519	367.499147915097	897.501968087154	629.639243690299	300.348347046473	967.387608364092	534.888380245167	357.205122381130	951.505308089990	457.536602991987	356.489427456843	891.580595175131	402.354104099539	348.542201339976	759.200382329830	338.691337939633	300.168737502589	765.953860505720	208.828642726196	355.821016002763	1034.960365956353	405.560170278321	566.366553931580	966.454568185476	300.839693660208	629.296166132490	1004.640548699928	206.893602564996	563.002802522160	867.829001520899	43.477405810519	538.253358692967	1041.000032956349	97.137781966838	566.888075251046	954.056428869009	37.387693811109	608.673405879302	1161.680521099410	43.385402297945	590.174243748253	589.439169713467	105.021384017316	395.351232485535	655.873408484887	73.982803766998	315.824404469502	754.844528671772	108.933053543915	336.304632548311	857.566872267077	34.560810570742	310.311427010612	1066.633807808586	1110.963683228627	189.895026608900	1320.893116066535	1060.292916649436	205.456858945488	817.372723620320	1120.948553229319	770.099731298779	782.899859150635	863.086138877100	792.536830244018	
92	40.900000000000	775.266967748586	1007.810439789170	496.941014886668	981.201763166180	1435.972721083745	338.881819405868	1063.163718919876	1361.535197764989	508.567504681774	964.519224385666	1436.187625076603	673.444670873378	947.968185815981	1494.884509976628	495.533979873569	998.042015661921	938.673942469698	627.840132775056	997.671594105770	959.410106017653	354.226789762485	1049.544055223781	744.452296035290	587.452553691533	975.769516452069	628.668153331304	643.203627174778	1054.799713583614	583.485970910664	559.593232293956	1061.319588152213	494.237707843847	563.124894273933	1010.139390047414	730.508998516596	371.531227068689	904.018821899926	629.114475121201	303.932345017476	976.203281734690	535.202763108283	360.704516250452	960.968944216660	456.529990292576	358.797024889251	898.884270188581	402.075559072816	350.782475116677	764.518314482647	343.063956054828	302.222104285739	767.504999040763	212.702847705968	356.670866503201	1031.586875996917	404.906431406919	568.240532189307	962.390289757909	300.358478456915	630.645929133008	999.743649371975	206.524981987031	563.746178736290	861.949342534714	43.555780549856	538.296997028398	1035.151808842820	97.078729661130	567.052543608719	948.150115266478	37.417762135232	608.735072607645	1155.804383535011	43.018921473525	590.350799511496	587.758968579808	116.050177618250	395.536552782908	652.702538377324	81.885282109636	316.037715979845	753.099098936385	112.229538204100	336.411160898558	851.605712141641	33.759878274916	310.636387397652	1060.757214972727	1108.515563408987	194.057570542072	1313.270356795286	1048.350945741701	207.876859837317	824.416435331610	1119.057566142892	775.490863083879	792.786980744989	860.969304422708	799.249217328821	
93	40.920000000000	775.330811449289	1007.895415095622	502.933313218051	980.108962278039	1435.594023536609	341.852029620292	1063.890914319162	1361.323802451210	510.756428696173	967.034298746462	1436.152643308767	676.526051193906	948.730533022854	1494.854339727407	498.611555876188	999.386642890315	938.515188883634	631.686816451738	996.230756989933	959.239012346503	358.239253221646	1049.441156417889	743.626937846537	590.770397833207	974.754242849839	628.084715237557	646.116846757808	1053.237832781088	582.667320333017	562.222978178732	1058.958788268062	493.241055734646	565.281382450289	1013.827256095527	731.929191726488	375.681703086906	911.194732403958	628.498821735000	307.556590250476	985.658603123381	535.680487300917	364.614882834908	971.174345013937	455.661015620081	361.569205029355	906.999527553192	401.798896651890	353.357681900395	770.789738585649	347.657503740690	304.495229218610	769.717898095682	216.979716430565	357.877745174021	1028.437668106368	404.133680860964	569.955384244727	958.470671903378	299.837509535524	631.908005179667	994.904225991981	206.080732345868	564.418348035631	855.993427131522	43.615145288035	538.328416821791	1029.229108524838	97.005704982288	567.188051886168	942.163041873313	37.442805698833	608.803341258548	1149.847186412874	42.702670144640	590.507596116126	586.823679331708	127.906033377192	396.046722785601	650.156584672805	90.771738248988	316.492196241837	751.866556255607	116.226065888754	336.852536973193	845.894238247876	33.000389302723	311.003683967544	1054.076904922760	1105.642332186475	198.268215499916	1303.949558631224	1034.512761358627	210.173258193847	831.995245634683	1116.441651672848	780.522102353977	804.021002665917	858.050780065113	805.581538120205	
94	40.940000000000	775.048733689532	1007.717311072324	508.772470918889	978.617886190254	1434.963614465802	344.632087962612	1064.276810885401	1360.811771069702	512.687872340116	969.335204849829	1435.773893216350	679.408022219407	949.211512656036	1494.563890124506	501.526573502337	1000.475259158408	938.143135711300	635.273529502482	994.434012254997	958.865996876809	361.984207712609	1049.363075294426	742.770120019118	593.792768477219	973.971350457022	627.369282866634	648.774585205987	1051.950503980452	581.809397236241	564.577182350934	1057.007700565341	492.128030405897	567.202667158617	1017.640490553721	733.478082158839	379.933839681089	918.949722898421	627.863574498962	311.203763699212	995.657123312054	536.393087663238	368.885759063165	982.046273178054	455.012291730653	364.771844054531	915.873002381655	401.582360548862	356.240478020785	777.960183753635	352.428764817085	307.024768246123	772.657546308932	221.592055629987	359.453819448187	1025.564192690134	403.232956521671	571.485214866623	954.745161433635	299.276624986987	633.060906884283	990.149886573438	205.557811363768	565.005338737441	849.978281814967	43.659177183125	538.353018008984	1023.250418586690	96.923064376532	567.298542103294	936.115258949024	37.463448763054	608.879096834576	1143.829356024957	42.433779547793	590.643931699687	586.780311916106	140.251967710577	396.963838489233	648.428997637851	100.434235961860	317.235951347417	751.311456242266	120.877697394289	337.638443139710	840.731568679402	32.397698006104	311.354523255612	1046.629004642053	1102.393289397817	202.554503572546	1292.726376915655	1018.833061767194	212.387692509736	840.213007322791	1113.102992644028	785.184031320966	816.880594218335	854.351069442568	811.459378268254	
